<?xml version="1.0" encoding="utf-8"?>
<!-- Generator: Adobe Illustrator 23.0.3, SVG Export Plug-In . SVG Version: 6.00 Build 0)  -->
<svg version="1.1" id="Layer_1" xmlns="http://www.w3.org/2000/svg" xmlns:xlink="http://www.w3.org/1999/xlink" x="0px" y="0px"
	 viewBox="0 0 500 500" style="enable-background:new 0 0 500 500;" xml:space="preserve">
<style type="text/css">
	.st0{fill:#FFFFFF;}
</style>
<g>
	<circle class="st0" cx="219.8" cy="280.5" r="17.5"/>
	<ellipse class="st0" cx="281.5" cy="258.5" rx="7.1" ry="7.1"/>
	<circle class="st0" cx="365.6" cy="227.7" r="7.1"/>
	<ellipse class="st0" cx="364.3" cy="261.5" rx="7.1" ry="7.1"/>
	<ellipse class="st0" cx="339.3" cy="285" rx="7.1" ry="7.1"/>
	<circle class="st0" cx="304.9" cy="283" r="7.1"/>
	<ellipse class="st0" cx="282.7" cy="224.5" rx="7.1" ry="7.1"/>
	<ellipse class="st0" cx="308.3" cy="201.2" rx="7.1" ry="7.1"/>
	<ellipse class="st0" cx="342.1" cy="202.3" rx="7.1" ry="7.1"/>
	<circle class="st0" cx="297.1" cy="252.7" r="4.6"/>
	<circle class="st0" cx="351.2" cy="232.8" r="4.6"/>
	<circle class="st0" cx="350.3" cy="254.6" r="4.6"/>
	<circle class="st0" cx="334.2" cy="269.7" r="4.6"/>
	<circle class="st0" cx="312.1" cy="268.4" r="4.6"/>
	<circle class="st0" cx="297.8" cy="230.8" r="4.6"/>
	<circle class="st0" cx="314.3" cy="215.8" r="4.6"/>
	<circle class="st0" cx="336" cy="216.5" r="4.6"/>
	<ellipse class="st0" cx="257.4" cy="267" rx="11.2" ry="11.2"/>
	
		<ellipse transform="matrix(0.3827 -0.9239 0.9239 0.3827 39.263 495.4043)" class="st0" cx="390.3" cy="218.3" rx="11.2" ry="11.2"/>
	<ellipse class="st0" cx="388.2" cy="271.8" rx="11.2" ry="11.2"/>
	<circle class="st0" cx="294.3" cy="305.6" r="11.2"/>
	
		<ellipse transform="matrix(0.1602 -0.9871 0.9871 0.1602 7.2337 434.9023)" class="st0" cx="259.2" cy="213.2" rx="11.2" ry="11.2"/>
	
		<ellipse transform="matrix(0.7071 -0.7071 0.7071 0.7071 -36.9452 263.5822)" class="st0" cx="299.7" cy="176.4" rx="11.2" ry="11.2"/>
	<circle class="st0" cx="223.3" cy="195.7" r="17.5"/>
	<circle class="st0" cx="286.1" cy="138.1" r="17.5"/>
	<circle class="st0" cx="276.8" cy="343" r="17.5"/>
	<circle class="st0" cx="361.6" cy="346.2" r="17.5"/>
	<circle class="st0" cx="424" cy="289.3" r="17.5"/>
	<circle class="st0" cx="427.3" cy="205.2" r="17.5"/>
	<path class="st0" d="M361.6,303.7c-1,0-1.9,0-2.8,0.1c-1.8-3.7-5.6-6.2-10-6.2c-6.2,0-11.2,5-11.2,11.2c0,0.8,0.1,1.5,0.2,2.3
		c-11.2,7.6-18.5,20.5-18.5,35c0,23.4,19,42.4,42.4,42.4s42.4-19,42.4-42.4C404,322.7,385,303.7,361.6,303.7z M361.6,372.5
		c-14.5,0-26.3-11.8-26.3-26.3s11.8-26.3,26.3-26.3s26.3,11.8,26.3,26.3S376.1,372.5,361.6,372.5z"/>
	<circle class="st0" cx="370.6" cy="143.2" r="17.5"/>
	<path class="st0" d="M342.4,174.8c-0.3,1.1-0.5,2.2-0.5,3.4c0,6.2,5,11.2,11.2,11.2c3.7,0,7.1-1.8,9.1-4.7c2.7,0.5,5.5,0.8,8.4,0.8
		c23.4,0,42.4-19,42.4-42.4s-19-42.4-42.4-42.4s-42.4,19-42.4,42.4C328.2,155.8,333.7,167,342.4,174.8z M370.6,116.8
		c14.5,0,26.3,11.8,26.3,26.3s-11.8,26.3-26.3,26.3s-26.3-11.8-26.3-26.3C344.3,128.7,356.1,116.8,370.6,116.8z"/>
</g>
<g>
	<path class="st0" d="M463.1,184c0.6-1.3,1.3-2.4,2.3-3.3c1-0.9,2.1-1.7,3.4-2.2s2.7-0.8,4.1-0.8c1.5,0,2.8,0.3,4.1,0.8
		c1.3,0.5,2.4,1.3,3.4,2.2s1.7,2.1,2.3,3.3c0.6,1.3,0.8,2.7,0.8,4.2s-0.3,2.9-0.8,4.2c-0.6,1.3-1.3,2.4-2.3,3.4s-2.1,1.7-3.4,2.2
		s-2.6,0.8-4.1,0.8s-2.8-0.3-4.1-0.8c-1.3-0.5-2.4-1.3-3.4-2.2c-1-1-1.7-2.1-2.3-3.4c-0.6-1.3-0.8-2.7-0.8-4.2
		C462.2,186.7,462.5,185.3,463.1,184z M464.8,191.8c0.4,1.1,1.1,2.1,1.8,2.9c0.8,0.8,1.7,1.4,2.8,1.9c1.1,0.5,2.2,0.7,3.5,0.7
		c1.2,0,2.4-0.2,3.4-0.7c1.1-0.5,2-1.1,2.8-1.9c0.8-0.8,1.4-1.8,1.8-2.9c0.4-1.1,0.7-2.3,0.7-3.6s-0.2-2.4-0.7-3.5
		c-0.4-1.1-1.1-2-1.8-2.8c-0.8-0.8-1.7-1.4-2.8-1.9c-1.1-0.5-2.2-0.7-3.4-0.7c-1.2,0-2.4,0.2-3.5,0.7s-2,1.1-2.8,1.9
		c-0.8,0.8-1.4,1.7-1.8,2.8s-0.7,2.3-0.7,3.5C464.1,189.5,464.3,190.7,464.8,191.8z M473.5,182.1c1.5,0,2.6,0.3,3.3,0.9
		c0.7,0.6,1.1,1.5,1.1,2.7c0,1.1-0.3,1.9-0.9,2.4s-1.4,0.8-2.3,0.9l3.5,5.5h-2.1l-3.4-5.3h-2v5.3h-1.9v-12.3L473.5,182.1
		L473.5,182.1z M472.7,187.6c0.4,0,0.8,0,1.2,0c0.4,0,0.7-0.1,1-0.2c0.3-0.1,0.5-0.3,0.7-0.6s0.3-0.7,0.3-1.1c0-0.4-0.1-0.7-0.2-1
		c-0.2-0.2-0.4-0.4-0.6-0.6c-0.3-0.1-0.5-0.2-0.9-0.3c-0.3,0-0.7-0.1-1-0.1h-2.5v3.9L472.7,187.6L472.7,187.6z"/>
</g>
<path class="st0" d="M163.5,268.9c-0.4-9.5-5.8-45.5-67.1-24.3l5.5,16.1c0,0,42.1-18.9,42.9,12.5c0,0-50.9-13.7-55.2,20.5
	c0,0-3.9,31.1,32.5,29c0,0,13.1-0.5,22.7-11.4l0.1-0.1v10.2h18.7L163.5,268.9L163.5,268.9z M122.8,308.9c0,0-15.7,0.6-16.4-12.4
	c0,0-0.4-14.2,18.7-12.5c0,0,11.4,0.8,18.7,3.7C143.9,287.7,147.4,306.4,122.8,308.9z"/>
<path class="st0" d="M73.7,255.7v-15.9H52.2V217H32.8v22.8h-9.7v15.9h9.7v47.1c0,10.7,8.7,19.4,19.4,19.4l0,0
	c12.1,1,20.9-4.1,20.9-4.1v-15.2c-7,3-11.8,2.8-11.8,2.8c-8.1,0-9.1-6.8-9.1-6.8v-43.3h21.5V255.7z"/>
<path class="st0" d="M219.8,254.2c14.5,0,26.3,11.8,26.3,26.3s-11.8,26.3-26.3,26.3s-26.3-11.8-26.3-26.3
	C193.4,266,205.3,254.2,219.8,254.2 M219.8,238.1c-23.4,0-42.4,19-42.4,42.4s19,42.4,42.4,42.4s42.4-19,42.4-42.4
	C262.2,257.1,243.2,238.1,219.8,238.1L219.8,238.1z"/>
</svg>
